
        <svg xmlns="http://www.w3.org/2000/svg" xmlns:xlink="http://www.w3.org/1999/xlink" version="1.1" width="2156.25" 
        height="3156.25" viewBox="0 0 2156.25 3156.25">
			
			<g transform="scale(7.8125) translate(10, 10)">
				<defs id="SvgjsDefs2503"></defs><g id="SvgjsG2504" featureKey="rootContainer" transform="matrix(1,0,0,1,0,19)" fill="#111111"><rect y="0" height="1" width="1" opacity="0"></rect><rect y="360" width="256" height="5"></rect></g><g id="SvgjsG2505" featureKey="symbolFeature-0" transform="matrix(2.46987581371419,0,0,2.46987581371419,10.64783923182938,17.525890166451756)" fill="#111111"><path xmlns="http://www.w3.org/2000/svg" d="M79.855,5.503c-0.201-0.385-6.215,2.554-11.881,5.563c0.363-0.217,0.729-0.439,1.099-0.666  c5.799-3.576,10.146-7.054,9.721-7.76c-0.23-0.376-6.264,3.099-11.809,6.547c5.083-4.347,8.743-8.345,8.212-8.977  C74.87-0.174,67.733,5.648,62.35,10.384c-2.886,2.444-8.151,6.942-8.523,7.542c-0.515,0.82-4.823,13.798-8.483,19.23  c-3.658,5.432-6.886,5.537-6.886,5.537l0.085-1.615l-1.541-0.749c0,0-1.928-1.312-3.316-1.344c-1.387-0.03-2.846,0.892-3.911,1.262  c-1.062,0.366-2.337,0.877-4.962,1.44c-2.738,0.587-5.242,0.772-5.814,0.855c-0.664,0.101-0.736,0.541-0.741,1.046  c-0.017,0.882,3.384,1.481,5.993,1.536c2.61,0.05,6.339-0.855,6.339-0.855s-1.269,1.188,0.099,2.605  c1.358,1.409,5,1.438,5.696,2.336c1.013,1.307-3.017,6.672-7.801,12.577c-4.782,5.918-5.359,4.946-7.041,7.432  c-1.202,1.79-2.178,5.724-2.632,7.794c-1.977,6.926-4.217,16.066-3.717,16.196c0.798,0.217,2.881-4.953,4.642-11.538  c0.2-0.751,0.386-1.485,0.56-2.202c-0.63,6.962-1.088,15.304-0.605,15.337c0.83,0.061,1.937-5.395,2.475-12.195  c0.034-0.422,0.064-0.839,0.091-1.25c-0.092,6.386,0.035,13.011,0.465,13.013c0.83,0.01,1.573-5.52,1.654-12.334  c0.009-0.684,0.01-1.35,0.005-2.003h0c0.399,6.401,1.041,13.059,1.473,13.029c0.808-0.057,1.125-5.403,0.723-12.014  c0.59,4.845,1.237,8.928,1.576,8.891c0.665-0.075,0.836-3.72,0.492-8.679l0.057,0.017c0,0,7.269-8.006,10.765-12.532  c3.493-4.535,7.169-10.607,7.169-10.607s0.976-0.503,1.879-1.445c0.912-0.943,0.992-1.169,0.992-1.169s0.678,0.131,1.733,0.235  c1.074,0.116,2.035,0.13,2.035,0.13s0.543,0.812,1.188,1.785c0.646,0.977,1.141,1.353,2.445,1.768  c1.142,0.368,5.513-2.503,6.307-3.878c0.741-1.3,0.571-6.803-0.019-7.043c-0.585-0.231-0.733-0.307-2.517-0.192  c-1.781,0.113-3.504,1.045-3.504,1.045s-2.474-2.056-2.615-2.496c-0.143-0.447,0.918-1.465,1.528-2.565  c0.617-1.101,0.642-2.581,0.642-2.581s4.897-7.91,7.659-12.903c2.382-4.298,5.052-12.158,5.745-14.25  c4.333-2.096,7.283-3.981,7.025-4.588c-0.128-0.303-3.773,1.058-8.102,2.857c0.16-0.083,0.318-0.164,0.479-0.249  C75.662,9.416,80.241,6.242,79.855,5.503z"></path></g><g id="SvgjsG2506" featureKey="nameFeature-0" transform="matrix(1.3061897641693436,0,0,1.3061897641693436,-5.485342778569335,256.3099325949724)" fill="#111111"><path d="M14.844 12.383 c5.0586 0 8.3203 3.8281 8.3203 8.5547 c0 4.7852 -3.2617 8.4766 -8.3203 8.4766 l-6.7578 0 l0 10.586 l-3.8867 0 l0 -27.617 l10.645 0 z M14.258 26.055 c3.2422 0 5.0586 -2.0898 5.0586 -5.1758 c0 -2.9688 -1.8164 -5.1563 -5.0586 -5.1563 l-6.1719 0 l0 10.332 l6.1719 0 z M50.57202734375 15.879000000000001 l-11.055 0 l0 8.5938 l9.7461 0 l0 3.4766 l-9.7461 0 l0 8.5352 l11.055 0 l0 3.5156 l-15.02 0 l0 -27.617 l15.02 0 l0 3.4961 z M67.5107046875 36.4844 l9.4336 0 l0 3.5156 l-13.32 0 l0 -27.617 l3.8867 0 l0 24.102 z M88.68796953125 40 l0 -27.617 l3.8867 0 l0 27.617 l-3.8867 0 z M119.357671875 40.37109 c-7.832 0 -13.809 -5.3711 -13.809 -14.199 c0 -8.7891 5.9766 -14.16 13.809 -14.16 c5.5859 0 10.215 2.7734 12.344 7.5195 l-3.5938 1.4258 c-1.6016 -3.3789 -4.8633 -5.2734 -8.75 -5.2734 c-5.5469 0 -9.9414 3.8281 -9.9414 10.488 c0 6.6992 4.3945 10.527 9.9414 10.527 c3.8867 0 7.1484 -1.8945 8.75 -5.2734 l3.5938 1.4453 c-2.1289 4.7266 -6.7578 7.5 -12.344 7.5 z M161.84294921875 40 l-2.3047 -6.4453 l-12.344 0 l-2.3047 6.4453 l-4.043 0 l10.176 -27.617 l4.6875 0 l10.176 27.617 l-4.043 0 z M148.40574921875 30.1562 l9.9219 0 l-4.9609 -13.926 z M196.2436640625 12.383 l3.8672 0 l0 27.617 l-4.1992 0 l-14.434 -21.914 l0 21.914 l-3.8477 0 l0 -27.617 l4.1602 0 l14.453 21.816 l0 -21.816 z"></path></g><g id="SvgjsG2507" featureKey="nameFeature-1" transform="matrix(1.0321433518837764,0,0,1.0321433518837764,-4.334175045017485,306.6028349886981)" fill="#111111"><path d="M21.699 12.383 l3.8867 0 l0 27.617 l-3.8867 0 l0 -12.109 l-13.574 0 l0 12.109 l-3.9258 0 l0 -27.617 l3.9258 0 l0 12.051 l13.574 0 l0 -12.051 z M52.36890234375 40.37109 c-7.832 0 -13.809 -5.3906 -13.809 -14.199 c0 -8.7891 5.9766 -14.16 13.809 -14.16 c7.793 0 13.789 5.3711 13.789 14.16 c0 8.8086 -5.9961 14.199 -13.789 14.199 z M52.36890234375 36.7187 c5.5273 0 9.9023 -3.8281 9.9023 -10.547 c0 -6.6602 -4.375 -10.488 -9.9023 -10.488 c-5.5469 0 -9.9414 3.8281 -9.9414 10.488 c0 6.7188 4.3945 10.547 9.9414 10.547 z M82.9989859375 36.4844 l9.4336 0 l0 3.5156 l-13.32 0 l0 -27.617 l3.8867 0 l0 24.102 z M104.17625078125 40 l0 -27.617 l9.1016 0 c8.4961 0 12.813 5.7031 12.813 13.789 c0 8.1445 -4.3164 13.828 -12.813 13.828 l-9.1016 0 z M108.06295078125 36.4844 l5.0586 0 c6.0352 0 8.9063 -4.0039 8.9063 -10.313 c0 -6.2695 -2.8711 -10.293 -8.9063 -10.293 l-5.0586 0 l0 20.605 z M139.142559375 40 l0 -27.617 l3.8867 0 l0 27.617 l-3.8867 0 z M176.53126171875 12.383 l3.8672 0 l0 27.617 l-4.1992 0 l-14.434 -21.914 l0 21.914 l-3.8477 0 l0 -27.617 l4.1602 0 l14.453 21.816 l0 -21.816 z M207.0243828125 40.37109 c-7.7344 0 -13.672 -5.293 -13.672 -14.102 c0 -8.8867 5.9766 -14.258 13.809 -14.258 c5.0781 0 9.4336 2.2266 11.816 6.4453 l-3.4375 1.8359 c-1.7383 -3.2422 -4.8438 -4.7461 -8.3789 -4.7461 c-5.5859 0 -9.9023 3.7891 -9.9023 10.645 c0 6.7578 4.2188 10.684 10.039 10.684 c4.6875 0 8.3594 -2.6367 9.0039 -7.8711 l-9.0234 0 l0 -3.2422 l12.793 0 l0 14.238 l-3.1641 0 l0 -4.9609 c-1.8164 3.3789 -5.2344 5.332 -9.8828 5.332 z M242.26459765625 40.37109 c-5.7617 0 -9.9805 -2.7539 -10.918 -7.4414 l3.9648 -0.9375 c0.625 3.2227 3.418 5.0781 7.0898 5.0781 c2.9492 0 5.7813 -1.2109 5.7227 -4.5313 c-0.039063 -3.2813 -3.5938 -4.1797 -7.3633 -5.2148 c-4.2773 -1.1719 -8.5547 -2.5195 -8.5547 -7.5977 c0 -5.1367 4.2383 -7.7148 9.2578 -7.7148 c4.8633 0 9.2383 2.0508 10.273 6.7969 l-3.7695 0.95703 c-0.68359 -3.0664 -3.2422 -4.4336 -6.3281 -4.4336 c-2.7734 0 -5.5273 1.2109 -5.5273 4.3555 c0 2.8516 3.0859 3.6914 6.582 4.6289 c4.3945 1.1914 9.4336 2.5586 9.4336 8.1055 c0 5.5859 -4.6875 7.9492 -9.8633 7.9492 z"></path></g>
			</g>
		</svg>
	